PathFileType	4	(X/Y/Z)	/Users/visionmauri/2_8_1_f_Sports2D/2_8_1_f_Sports2D_px_person00.trc
DataRate	CameraRate	NumFrames	NumMarkers	Units	OrigDataRate	OrigDataStartFrame	OrigNumFrames
30.0	30.0	7	22	m	30.0	175	350
Frame#	Time	Hip			RHip			RKnee			RAnkle			RBigToe			RSmallToe			RHeel			LHip			LKnee			LAnkle			LBigToe			LSmallToe			LHeel			Neck			Head			Nose			RShoulder			RElbow			RWrist			LShoulder			LElbow			LWrist			
		X1	Y1	Z1	X2	Y2	Z2	X3	Y3	Z3	X4	Y4	Z4	X5	Y5	Z5	X6	Y6	Z6	X7	Y7	Z7	X8	Y8	Z8	X9	Y9	Z9	X10	Y10	Z10	X11	Y11	Z11	X12	Y12	Z12	X13	Y13	Z13	X14	Y14	Z14	X15	Y15	Z15	X16	Y16	Z16	X17	Y17	Z17	X18	Y18	Z18	X19	Y19	Z19	X20	Y20	Z20	X21	Y21	Z21	X22	Y22	Z22
175	5.8500477554918815	583.1484902385338	761.2892756072829	0.0	532.6516482010065	773.1163140413132	0.0	524.2000939060798	978.7554488193264	0.0	526.7332264395786	1166.1252015782427	0.0	514.5290968980155	1231.4708836120958	0.0	487.14909029839254	1219.87661083237	0.0	539.102794131934	1191.4654600192027	0.0	634.2232262019919	770.1337782023636	0.0	628.1015538746824	970.5656960946541	0.0	634.0955398095746	1174.6054236263485	0.0	623.2003312776455	1250.8057599872259	0.0	657.0964651532889	1242.9547396825592	0.0	625.5247208761301	1199.1538015867793	0.0	574.1803129226761	460.6716908909685	0.0	575.901157746482	323.9147794641535	0.0	575.7733398630972	408.37654584735014	0.0	475.5935258643555	505.395255984046	0.0	434.69386405992645	637.4071717123354	0.0	400.8434371086895	746.9060851202274	0.0	669.6834803895298	506.0364890088223	0.0	725.4335571072987	640.0421004718061	0.0	765.7691549059383	749.8900666560603	0.0
176	5.883476599808978	583.1017113828138	762.221125355509	0.0	532.8681339259799	773.5057265501396	0.0	524.4603933469658	979.5859832372513	0.0	526.5635568451983	1166.2901051357844	0.0	514.2495332388852	1231.7036789755616	0.0	487.63624586912647	1219.9926885794443	0.0	540.0225117757722	1191.6665088242426	0.0	634.6614565374738	771.6624661986189	0.0	627.9349840521631	971.5066813716371	0.0	633.7893920750287	1174.9986394727164	0.0	623.9204647132924	1250.971487780517	0.0	657.206614669538	1242.5681580892808	0.0	625.2564461838401	1198.7769000424844	0.0	576.1151274516855	459.82781700903826	0.0	577.4156780961204	322.8486100760731	0.0	577.4661808194135	407.36766511234026	0.0	476.983453342506	504.9652538161906	0.0	436.5078476805714	637.6474289113426	0.0	400.42598306132896	746.344905724473	0.0	672.0839872275808	505.510283644489	0.0	726.7282433819729	639.6113679394726	0.0	765.6146178133566	749.0434251245525	0.0
177	5.916905444126074	582.9820992755016	762.6256860180863	0.0	533.239067969625	772.4919410884798	0.0	524.5523677028032	980.5781602035199	0.0	526.6059225690692	1166.4295249276493	0.0	513.8262767273109	1231.7489355089847	0.0	488.12521534579633	1220.1715575341086	0.0	540.8814216164569	1191.8372174844442	0.0	635.2378605365664	771.6547707137299	0.0	627.9226306486461	971.5420510038217	0.0	633.253491371017	1175.1100589183893	0.0	624.1375536864149	1251.243862448258	0.0	656.5270735840347	1241.3429220288745	0.0	624.9373264676905	1198.6801762784096	0.0	578.0422673747194	459.4588459292242	0.0	579.6304026616496	322.1889068922859	0.0	579.5163150860202	407.12941850865093	0.0	478.2598902183318	503.5332706233249	0.0	438.33083682174333	637.6694048777819	0.0	400.43030396615416	745.3155320002365	0.0	673.869938502097	504.94718074699506	0.0	727.6155058522411	638.7832449720485	0.0	765.9058598375666	748.5647194388082	0.0
178	5.950334288443171	582.6074598987321	763.2161256334218	0.0	532.9938139197775	771.6771599392847	0.0	524.6166538465823	981.1410112303251	0.0	526.8297029048284	1166.46137555187	0.0	513.7056867527122	1231.8017041303317	0.0	488.3341830842984	1220.4272799853595	0.0	541.237922849268	1192.1168794155938	0.0	635.7556696055066	770.7569852540888	0.0	628.9270066860904	969.211354664941	0.0	633.0702141069537	1175.00392008575	0.0	624.042417792898	1251.5083632732965	0.0	655.7254636962003	1240.3191853012886	0.0	625.2488578297394	1198.8557540692589	0.0	579.8650606005367	460.19442790216294	0.0	581.8780340254978	321.36542823429494	0.0	581.1781976509293	406.95826629234926	0.0	479.4688862868691	502.22945200907935	0.0	439.1569168598132	637.0958616223102	0.0	401.08911636283807	745.1603325152753	0.0	675.3522428831532	503.9831576302151	0.0	728.0398327999031	637.9717074708518	0.0	766.2193411046561	748.4989572836446	0.0
179	5.983763132760267	581.9960464754571	764.6519067406464	0.0	531.6716506221932	772.3031938812458	0.0	524.7143938402938	980.9456507765623	0.0	527.2030055955446	1166.1015653856884	0.0	513.827958490733	1231.803472105394	0.0	488.3891418024248	1220.5352004573351	0.0	541.1709027125295	1192.274057624423	0.0	635.8788427345554	770.1468149150256	0.0	629.8855925300178	966.0399976185502	0.0	633.0698568761334	1174.1697054202928	0.0	623.9624395281642	1251.4628611514445	0.0	655.22144266642	1240.0128491380362	0.0	625.5340508634641	1198.3256259533587	0.0	581.5368783972152	461.7480858970628	0.0	583.5416255954904	320.18116839552084	0.0	582.2694758870671	406.07056491017863	0.0	480.64417744297634	501.7112670254354	0.0	438.85885933946554	636.0864403984498	0.0	401.6913687766467	745.8283911174974	0.0	676.8264822488441	502.7663859826847	0.0	728.5773710920046	637.1027026487561	0.0	766.3169039859606	748.9175533664471	0.0
180	6.017191977077364	581.6483349754054	765.678718088738	0.0	529.8852420974845	773.27122174006	0.0	524.650270864084	980.7153950652902	0.0	527.5812437766737	1165.4156576079665	0.0	514.2263937236733	1231.6388227832256	0.0	488.6601563065367	1220.367847962649	0.0	540.8558108109243	1191.9370754597373	0.0	635.801990814696	770.0567419615551	0.0	629.8664370864803	966.449259872803	0.0	633.0383586822215	1172.7795866969395	0.0	623.8343102235606	1251.2188326250086	0.0	655.0967435033291	1240.0124069644373	0.0	625.1898753753982	1197.0940784313548	0.0	583.2531964628376	461.84867996654725	0.0	584.8322852132271	318.6981997433628	0.0	583.375845857911	404.38050343082585	0.0	481.7340252574416	501.3261998319306	0.0	437.94057235635944	635.4074207762216	0.0	401.9610398319959	746.0301297425628	0.0	678.9778882585786	501.83468345426604	0.0	729.7917190433192	636.144752665972	0.0	766.3876176831204	749.6585366591614	0.0
181	6.05062082139446	581.6836454394709	764.7038052784928	0.0	528.4288539717116	772.8052150367624	0.0	524.0265041634726	980.5581339272371	0.0	527.7172255902323	1164.6391752879224	0.0	514.4830216340647	1231.5071647430482	0.0	488.8514781898888	1220.1937364932785	0.0	540.7221342404323	1190.9734568636056	0.0	635.7906155750846	769.898271236851	0.0	630.042917412552	969.747363444452	0.0	633.0093034063274	1171.7784943323527	0.0	623.3321501193999	1251.2540996518278	0.0	655.1589256492357	1240.0410752862351	0.0	624.6492515272627	1196.1262001165526	0.0	585.0757155763525	459.29345546074603	0.0	586.3660179463676	317.3316680343738	0.0	584.9129157497836	402.5507391518207	0.0	482.8549147413396	500.430845000559	0.0	437.1410333601037	635.3431361956722	0.0	402.1539937817459	745.2487114548572	0.0	682.1248504363491	501.38602825002755	0.0	731.4252711667834	635.4885994230783	0.0	766.6417957629556	750.1380748812898	0.0
